HIERARCHY
ROOT joint_Root
{
	OFFSET 0.0 0.0 0.0
	CHANNELS 6 Xposition Yposition Zposition Zrotation Xrotation Yrotation 
	JOINT Hips
	{
		OFFSET -17.1583 93.1646 452.98
		CHANNELS 6 Xposition Yposition Zposition Zrotation Xrotation Yrotation 
		JOINT Spine
		{
			OFFSET 15.7357 0.0 0.0
			CHANNELS 6 Xposition Yposition Zposition Zrotation Xrotation Yrotation 
			JOINT Chest
			{
				OFFSET 8.98455 -0.406207 0.0
				CHANNELS 6 Xposition Yposition Zposition Zrotation Xrotation Yrotation 
				JOINT Neck
				{
					OFFSET 16.3773 0.0 0.0
					CHANNELS 6 Xposition Yposition Zposition Zrotation Xrotation Yrotation 
					JOINT Head
					{
						OFFSET 6.45672 0.0 0.0
						CHANNELS 6 Xposition Yposition Zposition Zrotation Xrotation Yrotation 
						End Site
						{
							OFFSET 0.0 0.0 0.0
						}
					}
				}
				JOINT Shoulder_L
				{
					OFFSET 12.9942 -0.242716 4.98039
					CHANNELS 6 Xposition Yposition Zposition Zrotation Xrotation Yrotation 
					JOINT UpperArm_L
					{
						OFFSET 5.34809 0.0 0.0
						CHANNELS 6 Xposition Yposition Zposition Zrotation Xrotation Yrotation 
						JOINT LowerArm_L
						{
							OFFSET 24.3286 1.87007e-05 0.0
							CHANNELS 6 Xposition Yposition Zposition Zrotation Xrotation Yrotation 
							JOINT Hand_L
							{
								OFFSET 22.2916 0.0 0.0
								CHANNELS 6 Xposition Yposition Zposition Zrotation Xrotation Yrotation 
								End Site
								{
									OFFSET 0.0 0.0 0.0
								}
							}
						}
					}
				}
				JOINT Shoulder_R
				{
					OFFSET 12.9945 -0.242716 -4.98039
					CHANNELS 6 Xposition Yposition Zposition Zrotation Xrotation Yrotation 
					JOINT UpperArm_R
					{
						OFFSET -5.34813 0.0 0.0
						CHANNELS 6 Xposition Yposition Zposition Zrotation Xrotation Yrotation 
						JOINT LowerArm_R
						{
							OFFSET -24.3289 0.000322201 0.0
							CHANNELS 6 Xposition Yposition Zposition Zrotation Xrotation Yrotation 
							JOINT Hand_R
							{
								OFFSET -22.2915 -0.000108084 0.0
								CHANNELS 6 Xposition Yposition Zposition Zrotation Xrotation Yrotation 
								End Site
								{
									OFFSET 0.0 0.0 0.0
								}
							}
						}
					}
				}
			}
		}
		JOINT UpperLeg_L
		{
			OFFSET -2.19248 -6.46944 0.0
			CHANNELS 6 Xposition Yposition Zposition Zrotation Xrotation Yrotation 
			JOINT LowerLeg_L
			{
				OFFSET 39.0811 0.0 -1.23785e-05
				CHANNELS 6 Xposition Yposition Zposition Zrotation Xrotation Yrotation 
				JOINT Foot_L
				{
					OFFSET 40.9854 0.0 -1.26872e-05
					CHANNELS 6 Xposition Yposition Zposition Zrotation Xrotation Yrotation 
					JOINT Toes_L
					{
						OFFSET 11.7543 0.0 0.0
						CHANNELS 6 Xposition Yposition Zposition Zrotation Xrotation Yrotation 
						End Site
						{
							OFFSET 0.0 0.0 0.0
						}
					}
				}
			}
		}
		JOINT UpperLeg_R
		{
			OFFSET -2.19251 6.46944 0.0
			CHANNELS 6 Xposition Yposition Zposition Zrotation Xrotation Yrotation 
			JOINT LowerLeg_R
			{
				OFFSET -39.0811 -0.00228153 -0.0401928
				CHANNELS 6 Xposition Yposition Zposition Zrotation Xrotation Yrotation 
				JOINT Foot_R
				{
					OFFSET -40.9854 0.0 0.0
					CHANNELS 6 Xposition Yposition Zposition Zrotation Xrotation Yrotation 
					JOINT Toes_R
					{
						OFFSET -11.7543 0.0 0.0
						CHANNELS 6 Xposition Yposition Zposition Zrotation Xrotation Yrotation 
						End Site
						{
							OFFSET 0.0 0.0 0.0
						}
					}
				}
			}
		}
	}
}
MOTION
Frames:	9
Frame Time:	0.0333333
0.000000 0.000000 0.000000 0.000000 0.000000 -0.000000 0.457824 92.941100 1.678130 89.642300 5.322370 2.290420 15.735700 0.000005 -0.000001 70.305200 86.813500 -62.924000 8.984550 -0.406207 -0.000000 -1.546500 -2.745030 14.724100 16.377300 -0.000001 -0.000001 2.001670 2.876750 3.575110 6.456720 -0.000001 -0.000000 -14.432200 -4.113030 18.890700 12.994200 -0.242716 4.980390 -88.154400 -3.625690 -62.999000 5.348090 -0.000007 -0.000001 -65.612300 -54.004000 -115.737000 24.328600 0.000019 0.000005 0.417225 11.953600 -2.013380 22.291600 -0.000001 0.000005 47.198200 4.437360 17.623500 12.994500 -0.242716 -4.980390 88.264300 4.751670 -69.907300 -5.348130 -0.000001 -0.000004 -58.539100 7.484060 -7.158800 -24.328900 0.000322 -0.000009 1.698430 6.132680 -15.521500 -22.291500 -0.000108 -0.000004 6.151280 5.250320 1.424440 -2.192480 -6.469440 -0.000000 -174.535000 -9.410720 1.442800 39.081100 -0.000007 -0.000012 0.013413 -0.051110 14.705400 40.985400 -0.000006 -0.000013 0.950276 20.557500 -69.143900 11.754300 -0.000000 0.000003 -0.001590 0.191087 -8.824680 -2.192510 6.469440 -0.000001 174.479000 11.391000 -175.506000 -39.081100 -0.002282 -0.040193 0.011146 -0.037012 11.915800 -40.985400 0.000008 0.000006 -6.558580 4.546430 -68.475500 -11.754300 -0.000006 -0.000006 -0.011304 0.280803 -5.162320
0.000000 0.000000 0.000000 0.000000 0.000000 -0.000000 0.441958 92.947700 1.625220 89.612900 5.315990 2.269740 15.735700 0.000005 -0.000001 70.514500 86.829100 -63.158400 8.984550 -0.406207 -0.000000 -1.571180 -2.712230 14.674000 16.377300 -0.000001 -0.000001 2.071870 2.901660 3.582340 6.456720 -0.000001 -0.000000 -14.376300 -4.039940 18.774600 12.994200 -0.242716 4.980390 -88.153900 -3.624730 -62.986900 5.348090 -0.000007 -0.000001 -65.531800 -53.957200 -115.468000 24.328600 0.000019 0.000005 0.429326 11.970300 -2.068900 22.291600 -0.000001 0.000005 47.299700 4.434790 17.665100 12.994500 -0.242716 -4.980390 88.284300 4.694560 -69.898000 -5.348130 -0.000001 -0.000004 -58.815800 7.639110 -6.978640 -24.328900 0.000322 -0.000009 1.659180 6.019780 -15.449700 -22.291500 -0.000108 -0.000004 6.086190 5.249550 1.444570 -2.192480 -6.469440 -0.000000 -174.521000 -9.338000 1.376950 39.081100 -0.000007 -0.000012 0.013747 -0.052350 14.714200 40.985400 -0.000006 -0.000013 0.916240 20.439300 -69.084900 11.754300 -0.000000 0.000003 -0.001541 0.190440 -8.851020 -2.192510 6.469440 -0.000001 174.523000 11.426900 -175.569000 -39.081100 -0.002282 -0.040193 0.011018 -0.036357 11.931600 -40.985400 0.000008 0.000006 -6.615550 4.525520 -68.497400 -11.754300 -0.000006 -0.000006 -0.011736 0.283851 -5.037530
0.000000 0.000000 0.000000 0.000000 0.000000 -0.000000 0.447329 92.946500 1.612810 89.584900 5.302020 2.303260 15.735700 0.000005 -0.000001 70.884100 86.827200 -63.532500 8.984550 -0.406207 -0.000000 -1.556660 -2.673600 14.665700 16.377300 -0.000001 -0.000001 2.162600 2.904060 3.613780 6.456720 -0.000001 -0.000000 -14.405200 -3.958830 18.549300 12.994200 -0.242716 4.980390 -88.165800 -3.598230 -62.966200 5.348090 -0.000007 -0.000001 -65.545200 -53.903700 -115.261000 24.328600 0.000019 0.000005 0.422046 11.979500 -2.032290 22.291600 -0.000001 0.000005 47.349300 4.440840 17.567200 12.994500 -0.242716 -4.980390 88.318400 4.597810 -69.885900 -5.348130 -0.000001 -0.000004 -59.144800 7.709970 -6.878740 -24.328900 0.000322 -0.000009 1.679050 6.170680 -15.263000 -22.291500 -0.000108 -0.000004 6.049810 5.248110 1.483030 -2.192480 -6.469440 -0.000000 -174.502000 -9.286940 1.362040 39.081100 -0.000007 -0.000012 0.013833 -0.052403 14.787400 40.985400 -0.000006 -0.000013 0.927349 20.393500 -69.127100 11.754300 -0.000000 0.000003 -0.001622 0.191504 -8.807750 -2.192510 6.469440 -0.000001 174.526000 11.508100 -175.529000 -39.081100 -0.002282 -0.040193 0.010618 -0.034601 11.885700 -40.985400 0.000008 0.000006 -6.546560 4.654430 -68.390400 -11.754300 -0.000006 -0.000006 -0.011087 0.279253 -5.225770
0.000000 0.000000 0.000000 0.000000 0.000000 -0.000000 0.442784 92.949800 1.592400 89.544900 5.304210 2.298300 15.735700 0.000005 -0.000001 71.055700 86.839600 -63.700300 8.984550 -0.406207 -0.000000 -1.575260 -2.649130 14.673300 16.377300 -0.000001 -0.000001 2.231070 2.918140 3.633170 6.456720 -0.000001 -0.000000 -14.449200 -3.926870 18.385400 12.994200 -0.242716 4.980390 -88.175700 -3.578880 -62.967400 5.348090 -0.000007 -0.000001 -65.481300 -53.923900 -114.998000 24.328600 0.000019 0.000005 0.403989 11.812200 -1.972520 22.291600 -0.000001 0.000005 47.415300 4.438660 17.602500 12.994500 -0.242716 -4.980390 88.336700 4.551800 -69.902100 -5.348130 -0.000001 -0.000004 -59.450700 7.701580 -6.747360 -24.328900 0.000322 -0.000009 1.674170 6.209140 -15.131100 -22.291500 -0.000108 -0.000004 5.999310 5.249240 1.452920 -2.192480 -6.469440 -0.000000 -174.470000 -9.225210 1.331300 39.081100 -0.000007 -0.000012 0.014008 -0.052994 14.806700 40.985400 -0.000006 -0.000013 0.926158 20.371100 -69.114300 11.754300 -0.000000 0.000003 -0.001372 0.188184 -8.942720 -2.192510 6.469440 -0.000001 174.543000 11.626300 -175.538000 -39.081100 -0.002282 -0.040193 0.009694 -0.030278 11.860600 -40.985400 0.000008 0.000006 -6.636730 4.752610 -68.345400 -11.754300 -0.000006 -0.000006 -0.011485 0.282086 -5.109820
0.000000 0.000000 0.000000 0.000000 0.000000 -0.000000 0.456113 92.951300 1.575320 89.503300 5.318620 2.285630 15.735700 0.000005 -0.000001 71.285700 86.866000 -63.929100 8.984550 -0.406207 -0.000000 -1.619580 -2.611080 14.675300 16.377300 -0.000001 -0.000001 2.282570 2.879280 3.704900 6.456720 -0.000001 -0.000000 -14.447200 -3.914780 18.278300 12.994200 -0.242716 4.980390 -88.182300 -3.568910 -62.987100 5.348090 -0.000007 -0.000001 -65.667700 -53.880400 -114.981000 24.328600 0.000019 0.000005 0.393704 11.841100 -1.917710 22.291600 -0.000001 0.000005 47.397300 4.433990 17.678000 12.994500 -0.242716 -4.980390 88.348700 4.511460 -69.872300 -5.348130 -0.000001 -0.000004 -59.748600 7.815390 -6.629710 -24.328900 0.000322 -0.000009 1.658390 6.198720 -15.019000 -22.291500 -0.000108 -0.000004 5.962220 5.248240 1.479150 -2.192480 -6.469440 -0.000000 -174.448000 -9.242860 1.254420 39.081100 -0.000007 -0.000012 0.014609 -0.054910 14.898700 40.985400 -0.000006 -0.000013 0.948331 20.351200 -69.178300 11.754300 -0.000000 0.000003 -0.001551 0.190572 -8.845630 -2.192510 6.469440 -0.000001 174.548000 11.749600 -175.530000 -39.081100 -0.002282 -0.040193 0.008679 -0.025574 11.802100 -40.985400 0.000008 0.000006 -6.706230 4.892170 -68.271800 -11.754300 -0.000006 -0.000006 -0.011487 0.282101 -5.109170
0.000000 0.000000 0.000000 0.000000 0.000000 -0.000000 0.470773 92.954800 1.554640 89.490000 5.349680 2.210030 15.735700 0.000005 -0.000001 71.093000 86.905600 -63.735600 8.984550 -0.406207 -0.000000 -1.701390 -2.610680 14.675400 16.377300 -0.000001 -0.000001 2.356310 2.857900 3.779170 6.456720 -0.000001 -0.000000 -14.462200 -3.904810 18.163900 12.994200 -0.242716 4.980390 -88.190500 -3.550330 -62.970200 5.348090 -0.000007 -0.000001 -65.534900 -53.966100 -114.756000 24.328600 0.000019 0.000005 0.362028 11.650500 -1.791940 22.291600 -0.000001 0.000005 47.260000 4.431060 17.725500 12.994500 -0.242716 -4.980390 88.376700 4.435050 -69.873400 -5.348130 -0.000001 -0.000004 -60.083800 7.977840 -6.505290 -24.328900 0.000322 -0.000009 1.658130 6.208670 -14.993800 -22.291500 -0.000108 -0.000004 6.052730 5.247600 1.496060 -2.192480 -6.469440 -0.000000 -174.460000 -9.222690 1.137170 39.081100 -0.000007 -0.000012 0.014650 -0.054948 14.928800 40.985400 -0.000006 -0.000013 0.965192 20.379400 -69.188600 11.754300 -0.000000 0.000003 -0.001597 0.191177 -8.821040 -2.192510 6.469440 -0.000001 174.540000 11.914700 -175.602000 -39.081100 -0.002282 -0.040193 0.008309 -0.023879 11.763800 -40.985400 0.000008 0.000006 -6.739010 5.019280 -68.179900 -11.754300 -0.000006 -0.000006 -0.011432 0.281709 -5.125240
0.000000 0.000000 0.000000 0.000000 0.000000 -0.000000 0.494663 92.963700 1.547270 89.499000 5.382140 2.205430 15.735700 0.000005 -0.000001 71.149500 86.928800 -63.801800 8.984550 -0.406207 -0.000000 -1.744810 -2.591920 14.655400 16.377300 -0.000001 -0.000001 2.407220 2.826980 3.834650 6.456720 -0.000001 -0.000000 -14.465400 -3.924960 18.101400 12.994200 -0.242716 4.980390 -88.193700 -3.545960 -62.982800 5.348090 -0.000007 -0.000001 -65.459600 -54.040800 -114.605000 24.328600 0.000019 0.000005 0.341534 11.592500 -1.698880 22.291600 -0.000001 0.000005 47.335700 4.430140 17.740000 12.994500 -0.242716 -4.980390 88.398200 4.377910 -69.880800 -5.348130 -0.000001 -0.000004 -60.408500 8.009070 -6.356030 -24.328900 0.000322 -0.000009 1.632150 6.101680 -15.015700 -22.291500 -0.000108 -0.000004 5.993540 5.252140 1.376280 -2.192480 -6.469440 -0.000000 -174.480000 -9.235140 1.176610 39.081100 -0.000007 -0.000012 0.014554 -0.054924 14.841900 40.985400 -0.000006 -0.000013 0.968114 20.411300 -69.166100 11.754300 -0.000000 0.000003 -0.001597 0.191184 -8.820740 -2.192510 6.469440 -0.000001 174.470000 12.040600 -175.539000 -39.081100 -0.002282 -0.040193 0.006639 -0.016001 11.661700 -40.985400 0.000008 0.000006 -6.944100 5.146140 -68.104800 -11.754300 -0.000006 -0.000006 -0.011571 0.282691 -5.085030
0.000000 0.000000 0.000000 0.000000 0.000000 -0.000000 0.531257 92.957400 1.544300 89.496000 5.451830 2.186490 15.735700 0.000005 -0.000001 71.073500 86.946800 -63.726800 8.984550 -0.406207 -0.000000 -1.781670 -2.590230 14.652600 16.377300 -0.000001 -0.000001 2.429210 2.767000 3.873310 6.456720 -0.000001 -0.000000 -14.439700 -3.969000 18.005700 12.994200 -0.242716 4.980390 -88.190900 -3.551600 -62.984300 5.348090 -0.000007 -0.000001 -65.414400 -54.143700 -114.480000 24.328600 0.000019 0.000005 0.346137 11.564100 -1.725910 22.291600 -0.000001 0.000005 47.338000 4.423910 17.840200 12.994500 -0.242716 -4.980390 88.433700 4.280210 -69.878600 -5.348130 -0.000001 -0.000004 -60.736400 8.123330 -6.258260 -24.328900 0.000322 -0.000009 1.659360 6.156120 -15.126200 -22.291500 -0.000108 -0.000004 5.987500 5.247660 1.494390 -2.192480 -6.469440 -0.000000 -174.517000 -9.148430 1.079010 39.081100 -0.000007 -0.000012 0.014953 -0.055994 14.952400 40.985400 -0.000006 -0.000013 1.008260 20.372000 -69.181400 11.754300 -0.000000 0.000003 -0.001554 0.190620 -8.843680 -2.192510 6.469440 -0.000001 174.427000 12.195400 -175.559000 -39.081100 -0.002282 -0.040193 0.006500 -0.015295 11.688400 -40.985400 0.000008 0.000006 -6.965900 5.265370 -68.075700 -11.754300 -0.000006 -0.000006 -0.011338 0.281042 -5.152540
0.000000 0.000000 0.000000 0.000000 0.000000 -0.000000 0.569899 92.964400 1.541400 89.522800 5.499030 2.154120 15.735700 0.000005 -0.000001 70.997300 86.965800 -63.661600 8.984550 -0.406207 -0.000000 -1.820900 -2.587110 14.630000 16.377300 -0.000001 -0.000001 2.465110 2.731670 3.913670 6.456720 -0.000001 -0.000000 -14.449100 -3.981910 17.882400 12.994200 -0.242716 4.980390 -88.199700 -3.535110 -62.989300 5.348090 -0.000007 -0.000001 -65.582200 -54.196600 -114.544000 24.328600 0.000019 0.000005 0.354568 11.650400 -1.755040 22.291600 -0.000001 0.000005 47.278900 4.425590 17.813500 12.994500 -0.242716 -4.980390 88.452100 4.231700 -69.887300 -5.348130 -0.000001 -0.000004 -60.960000 8.284040 -6.229410 -24.328900 0.000322 -0.000009 1.674230 6.199520 -15.154000 -22.291500 -0.000108 -0.000004 5.893310 5.250830 1.411020 -2.192480 -6.469440 -0.000000 -174.583000 -9.086700 1.090010 39.081100 -0.000007 -0.000012 0.015605 -0.058764 14.871900 40.985400 -0.000006 -0.000013 1.026990 20.368600 -69.172900 11.754300 -0.000000 0.000003 -0.001439 0.189084 -8.906110 -2.192510 6.469440 -0.000001 174.374000 12.255900 -175.535000 -39.081100 -0.002282 -0.040193 0.006031 -0.013136 11.593900 -40.985400 0.000008 0.000006 -6.999320 5.240290 -68.032800 -11.754300 -0.000006 -0.000006 -0.011443 0.281789 -5.121980
